<svg width="225" height="72" viewBox="0 0 225 72" fill="none" xmlns="http://www.w3.org/2000/svg">
<path fill-rule="evenodd" clip-rule="evenodd" d="M108.762 13.5397C108.068 14.2139 107.731 15.0666 107.731 16.0977C107.731 17.1486 108.088 18.0211 108.762 18.6754C109.476 19.3496 110.408 19.6867 111.578 19.6867C112.748 19.6867 113.68 19.3496 114.394 18.6754C115.107 18.0012 115.464 17.1486 115.464 16.0977C115.464 15.0666 115.107 14.2139 114.413 13.5397C113.719 12.8655 112.768 12.5284 111.598 12.5284C110.408 12.5284 109.456 12.8655 108.762 13.5397ZM108.147 48.637H115.068V22.78H108.147V48.637ZM121.848 25.9526C119.964 28.3717 119.013 31.5642 119.013 35.53H119.033V35.8274C119.033 39.8329 119.984 43.065 121.908 45.4841C123.831 47.9231 126.33 49.1327 129.443 49.1327C132.04 49.1327 134.142 48.2404 135.729 46.4359V47.8239C135.729 49.6284 135.213 51.0164 134.202 51.988C133.171 52.9597 131.743 53.4554 129.919 53.4554C127.46 53.4554 125.378 52.4837 123.653 50.5603L120.599 54.7641C121.531 55.9737 122.879 56.9453 124.684 57.6988C126.468 58.4523 128.312 58.829 130.216 58.829C132.715 58.829 134.896 58.3928 136.76 57.5203C138.624 56.6479 140.071 55.359 141.102 53.6933C142.133 52.0079 142.649 50.0448 142.649 47.7843V22.7998H136.383L136.105 25.2387C134.519 23.2955 132.318 22.3239 129.482 22.3239C126.27 22.3239 123.732 23.5334 121.848 25.9526ZM127.321 41.5381C126.389 40.2096 125.913 38.3655 125.913 36.0257C125.913 33.3488 126.389 31.3064 127.341 29.9778C128.293 28.6096 129.582 27.9355 131.247 27.9355C133.29 27.9355 134.777 28.7088 135.709 30.2951V41.1812C134.797 42.7477 133.29 43.5409 131.188 43.5409C129.542 43.5409 128.253 42.8667 127.321 41.5381ZM153.557 22.7803L153.775 25.7745C155.619 23.4744 158.098 22.3044 161.211 22.3044C163.947 22.3044 165.989 23.1174 167.318 24.7236C168.646 26.3297 169.34 28.729 169.38 31.9413V48.6374H162.48V32.1C162.48 30.6326 162.162 29.5817 161.528 28.9075C160.893 28.2531 159.823 27.916 158.355 27.916C156.412 27.916 154.965 28.7489 153.993 30.3947V48.6175H147.092V22.7803H153.557ZM174.851 13.5397C174.157 14.2139 173.82 15.0666 173.82 16.0977C173.82 17.1486 174.177 18.0211 174.851 18.6754C175.565 19.3496 176.497 19.6867 177.667 19.6867C178.837 19.6867 179.769 19.3496 180.483 18.6754C181.196 18.0012 181.553 17.1486 181.553 16.0977C181.553 15.0666 181.196 14.2139 180.502 13.5397C179.808 12.8655 178.857 12.5284 177.687 12.5284C176.497 12.5284 175.545 12.8655 174.851 13.5397ZM174.236 48.637H181.157V22.78H174.236V48.637ZM194.384 16.4547V22.7801H198.806V27.8365H194.384V40.7452C194.384 41.697 194.562 42.391 194.939 42.8074C195.296 43.2238 196.01 43.4221 197.041 43.4221C197.814 43.4221 198.488 43.3626 199.063 43.2635V48.4983C197.715 48.9147 196.307 49.113 194.879 49.113C190.041 49.113 187.562 46.6741 187.483 41.7763V27.8563H183.716V22.7999H187.483V16.4547H194.384ZM204.536 45.6234C206.916 47.9434 210.009 49.1133 213.796 49.1133C215.958 49.1133 217.921 48.6969 219.666 47.8641C221.431 47.0511 222.838 45.901 223.87 44.4337L220.479 40.6265C218.992 42.5499 216.91 43.5215 214.252 43.5215C212.527 43.5215 211.119 43.006 209.989 41.9947C208.859 40.9636 208.185 39.6152 207.967 37.9298H224.425V35.114C224.425 31.0293 223.394 27.8566 221.371 25.6358C219.349 23.3951 216.553 22.2847 213.023 22.2847C210.683 22.2847 208.581 22.8399 206.737 23.9503C204.893 25.0607 203.485 26.6471 202.474 28.6894C201.463 30.7318 200.967 33.0518 200.967 35.6494V36.3236C200.967 40.2101 202.157 43.3034 204.536 45.6234ZM209.692 29.2645C210.544 28.3325 211.655 27.8764 213.023 27.8764C214.471 27.8764 215.601 28.2929 216.394 29.1257C217.207 29.9783 217.604 31.1681 217.643 32.6949V33.2501H208.046C208.304 31.525 208.839 30.1964 209.692 29.2645Z" fill="white"/>
<path opacity="0.5" d="M72.0211 0.4864L54.3953 66.2992C54.3057 66.5979 53.9472 66.6876 53.7381 66.4784L41.9378 54.6781L50.7806 21.6971C50.8702 21.3983 50.6013 21.1294 50.3026 21.2191L17.3215 30.0618L5.58095 18.3213C5.37183 18.1122 5.46145 17.7537 5.76019 17.664L71.5431 0.00841294C71.8419 -0.0513354 72.1107 0.217532 72.0211 0.4864Z" fill="#00B37E"/>
<path opacity="0.5" d="M41.9378 54.6786L37.3969 71.7068C37.3073 72.0056 36.9488 72.0952 36.7397 71.8861L0.113969 35.2902C-0.09515 35.0811 -0.00552798 34.7226 0.293214 34.633L17.3215 30.0623L41.9378 54.6786Z" fill="#00B37E"/>
<path d="M50.7808 21.6969L41.938 54.678L17.3218 30.0617L50.3028 21.2189C50.6015 21.1293 50.8704 21.3982 50.7808 21.6969Z" fill="#00B37E"/>
</svg>
