<svg width="325" height="72" viewBox="0 0 325 72" fill="none" xmlns="http://www.w3.org/2000/svg">
<path d="M11.7317 58.3259C10.4959 57.6163 9.49875 56.7191 8.73228 55.6417C7.91497 54.5154 7.32448 53.2765 6.95688 51.9288C6.58929 50.581 6.4094 49.2596 6.4094 47.9681V43.9699C6.4094 41.7963 5.88148 40.2346 4.82563 39.2885C3.76978 38.3425 2.16254 37.8657 0 37.8657V32.9627C2.16254 32.9627 3.76978 32.4897 4.82563 31.5399C5.88148 30.5939 6.4094 29.0133 6.4094 26.8059V22.8077C6.4094 21.4187 6.61275 19.9846 7.02336 18.5054C7.43397 17.0263 8.07921 15.7386 8.963 14.6424C9.69427 13.6964 10.6563 12.9192 11.849 12.3148C13.0417 11.7104 14.4612 11.4063 16.1154 11.4063L16.9836 15.2543C15.9433 15.2205 15.1456 15.4308 14.5825 15.8813C14.0194 16.3318 13.6127 16.9249 13.3546 17.657C13.1004 18.3928 12.9518 19.215 12.9088 20.1197C12.8657 21.0282 12.8462 21.9217 12.8462 22.804V26.8021C12.8462 28.7468 12.3495 30.4737 11.3524 31.9754C10.3552 33.4808 8.81049 34.6221 6.71834 35.4067C8.83004 36.1913 10.3786 37.3288 11.368 38.8155C12.3535 40.3021 12.8501 42.0178 12.8501 43.9662V47.9644C12.8501 48.8466 12.9048 49.7439 13.0143 50.6486C13.1238 51.5571 13.335 52.3755 13.64 53.1113C13.9451 53.8472 14.3674 54.4403 14.9031 54.8908C15.4389 55.3413 16.1311 55.5478 16.9836 55.5178L16.1154 59.3921C14.43 59.3921 12.9713 59.0354 11.7356 58.3259H11.7317Z" fill="#8257E5"/>
<path d="M309.473 54.8945C310.009 54.444 310.431 53.8509 310.736 53.1151C311.041 52.3792 311.256 51.5571 311.373 50.6523C311.491 49.7438 311.553 48.8503 311.553 47.9681V43.9699C311.553 43.0239 311.667 42.1229 311.898 41.2744C312.128 40.426 312.48 39.6301 312.957 38.898C313.434 38.1622 314.033 37.5052 314.756 36.9233C315.48 36.3452 316.344 35.8497 317.349 35.4404C316.532 35.1138 315.808 34.7196 315.178 34.2654C314.549 33.8074 314.005 33.3006 313.544 32.745C312.863 31.9265 312.359 31.018 312.038 30.0119C311.718 29.0058 311.553 27.9396 311.553 26.8134V22.8152C311.553 21.933 311.534 21.0395 311.491 20.131C311.448 19.2225 311.299 18.404 311.045 17.6682C310.791 16.9324 310.38 16.3393 309.817 15.8925C309.254 15.4458 308.456 15.2355 307.416 15.2656L308.284 11.4175C310.106 11.4175 311.639 11.7742 312.883 12.4837C314.127 13.1933 315.139 14.1468 315.921 15.3406C316.668 16.4181 317.204 17.6232 317.517 18.9559C317.83 20.2886 317.99 21.5763 317.99 22.8189V26.8171C317.99 27.7331 318.08 28.5403 318.26 29.2461C318.44 29.9481 318.718 30.545 319.089 31.0368C319.582 31.7088 320.278 32.1968 321.169 32.5084C322.065 32.82 323.14 32.974 324.4 32.974V37.8769C322.988 37.8769 321.811 38.0684 320.876 38.4513C319.938 38.8342 319.234 39.4537 318.757 40.3021C318.502 40.7601 318.311 41.2969 318.182 41.9089C318.053 42.5208 317.99 43.2116 317.99 43.9812V47.9794C317.99 49.2558 317.795 50.5772 317.404 51.9513C317.013 53.3253 316.434 54.5492 315.667 55.6304C314.901 56.7566 313.9 57.6689 312.668 58.3634C311.432 59.0579 309.974 59.407 308.288 59.407L307.42 55.5327C308.253 55.5665 308.941 55.3563 309.477 54.9058L309.473 54.8945Z" fill="#8257E5"/>
<path d="M41.5765 40.5124H36.6453L34.8074 50.566H30.1342L31.9722 40.5124H26.1729V36.2965H32.7348L34.0096 29.3325H28.0851V25.0677H34.8035L36.6688 14.8677H41.3184L39.4531 25.0677H44.4078L46.2731 14.8677H50.9462L49.0809 25.0677H54.673V29.3325H48.2871L47.0083 36.2965H52.7295V40.5124H46.2418L44.4039 50.566H39.7308L41.5687 40.5124H41.5765ZM37.4118 36.2965H42.343L43.6179 29.3325H38.6632L37.4118 36.2965Z" fill="#C6ADFF"/>
<path d="M83.4355 37.5468C83.4355 41.7965 82.4891 45.1115 80.6003 47.4879C78.7115 49.8642 76.0719 51.0543 72.6814 51.0543C69.686 51.0543 67.2927 49.9506 65.5056 47.7431L65.1732 50.5625H58.5331V12.9045H65.9123V26.4157C67.6134 24.5049 69.8541 23.5475 72.6306 23.5475C76.0015 23.5475 78.6451 24.7376 80.5612 27.114C82.4774 29.4904 83.4355 32.8391 83.4355 37.1526V37.5468ZM76.0524 37.0325C76.0524 34.352 75.6105 32.3961 74.7228 31.161C73.839 29.9259 72.5172 29.3102 70.7653 29.3102C68.415 29.3102 66.7961 30.2337 65.9123 32.0808V42.5511C66.8156 44.4132 68.4502 45.348 70.8161 45.348C73.182 45.348 74.7658 44.2217 75.5166 41.9655C75.8725 40.888 76.0524 39.2437 76.0524 37.0363V37.0325Z" fill="#C6ADFF"/>
<path d="M86.834 37.0546C86.834 34.4229 87.3619 32.0766 88.4178 30.0193C89.4736 27.9582 90.9909 26.3665 92.9775 25.2365C94.9601 24.1102 97.2634 23.5433 99.8874 23.5433C103.618 23.5433 106.661 24.6396 109.019 26.8282C111.377 29.0207 112.691 31.994 112.964 35.7519L113.015 37.5651C113.015 41.6347 111.83 44.9008 109.464 47.3598C107.098 49.8187 103.923 51.0501 99.9383 51.0501C95.9534 51.0501 92.7741 49.8262 90.4004 47.371C88.0267 44.9158 86.8379 41.5859 86.8379 37.3662V37.0471L86.834 37.0546ZM94.2132 37.5576C94.2132 40.0804 94.7059 42.0063 95.6953 43.339C96.6808 44.6755 98.0964 45.34 99.9344 45.34C101.772 45.34 103.118 44.6793 104.123 43.3653C105.128 42.0476 105.628 39.9415 105.628 37.0433C105.628 34.5731 105.128 32.6547 104.123 31.2957C103.118 29.9367 101.706 29.2572 99.8835 29.2572C98.0612 29.2572 96.6808 29.9329 95.6953 31.2844C94.7059 32.6359 94.2132 34.727 94.2132 37.5576Z" fill="#C6ADFF"/>
<path d="M133.088 30.68C132.083 30.5486 131.2 30.4848 130.433 30.4848C127.641 30.4848 125.811 31.3933 124.943 33.2066V50.5658H117.563V24.0351H124.536L124.739 27.1961C126.221 24.7597 128.271 23.5433 130.895 23.5433C131.712 23.5433 132.478 23.6485 133.194 23.8624L133.092 30.68H133.088Z" fill="#C6ADFF"/>
<path d="M151.885 50.5677C151.545 49.9295 151.298 49.1373 151.146 48.1875C149.359 50.0984 147.032 51.0557 144.173 51.0557C141.467 51.0557 139.223 50.3049 137.443 48.7995C135.664 47.2978 134.776 45.4019 134.776 43.1119C134.776 40.3 135.863 38.1414 138.034 36.6397C140.204 35.1343 143.34 34.376 147.447 34.3609H150.845V32.8405C150.845 31.6129 150.516 30.6331 149.863 29.8972C149.206 29.1614 148.174 28.7935 146.758 28.7935C145.515 28.7935 144.541 29.0788 143.833 29.6532C143.125 30.2239 142.773 31.0085 142.773 32.0071H135.394C135.394 30.4716 135.887 29.0488 136.876 27.7424C137.862 26.4359 139.262 25.4073 141.065 24.6639C142.867 23.9206 144.897 23.549 147.142 23.549C150.548 23.549 153.25 24.3711 155.252 26.0117C157.25 27.656 158.251 29.9648 158.251 32.9381V44.4371C158.267 46.9562 158.635 48.8595 159.35 50.151V50.5677H151.893H151.885ZM145.781 45.6385C146.872 45.6385 147.877 45.4057 148.796 44.9402C149.715 44.4747 150.395 43.8477 150.837 43.0631V38.5018H148.08C144.385 38.5018 142.418 39.7294 142.179 42.1809L142.156 42.5976C142.156 43.4798 142.48 44.2081 143.125 44.7788C143.771 45.3494 144.658 45.6385 145.781 45.6385Z" fill="#C6ADFF"/>
<path d="M193.592 38.6771C193.303 42.5177 191.824 45.5435 189.161 47.751C186.498 49.9584 182.983 51.0621 178.626 51.0621C173.859 51.0621 170.109 49.5229 167.376 46.4408C164.642 43.3586 163.277 39.1314 163.277 33.7517V31.5705C163.277 28.1392 163.907 25.1133 165.166 22.5004C166.425 19.8838 168.228 17.8791 170.567 16.4825C172.905 15.086 175.627 14.3877 178.728 14.3877C183.018 14.3877 186.475 15.4914 189.099 17.6989C191.719 19.9063 193.236 23.0035 193.647 26.9904H185.986C185.798 24.6854 185.13 23.0148 183.98 21.9749C182.83 20.9387 181.082 20.4169 178.732 20.4169C176.178 20.4169 174.266 21.2954 172.999 23.0523C171.732 24.8093 171.079 27.5348 171.044 31.2289V33.9244C171.044 37.7837 171.654 40.603 172.87 42.3825C174.086 44.1657 176.006 45.0555 178.63 45.0555C180.996 45.0555 182.764 44.5374 183.929 43.4975C185.094 42.4613 185.763 40.8546 185.935 38.6809H193.596L193.592 38.6771Z" fill="#C6ADFF"/>
<path d="M196.986 37.0546C196.986 34.4229 197.514 32.0766 198.57 30.0193C199.626 27.9582 201.147 26.3665 203.13 25.2365C205.112 24.1102 207.416 23.5433 210.04 23.5433C213.77 23.5433 216.813 24.6396 219.171 26.8282C221.529 29.0207 222.843 31.994 223.117 35.7519L223.168 37.5651C223.168 41.6347 221.983 44.9008 219.617 47.3598C217.251 49.8187 214.075 51.0501 210.091 51.0501C206.106 51.0501 202.926 49.8262 200.553 47.371C198.179 44.9158 196.99 41.5859 196.99 37.3662V37.0471L196.986 37.0546ZM204.369 37.5576C204.369 40.0804 204.862 42.0063 205.852 43.339C206.837 44.6755 208.253 45.34 210.091 45.34C211.929 45.34 213.274 44.6793 214.279 43.3653C215.284 42.0476 215.784 39.9415 215.784 37.0433C215.784 34.5731 215.284 32.6547 214.279 31.2957C213.274 29.9367 211.862 29.2572 210.04 29.2572C208.217 29.2572 206.837 29.9329 205.852 31.2844C204.866 32.6359 204.369 34.727 204.369 37.5576Z" fill="#C6ADFF"/>
<path d="M226.562 37.1076C226.562 32.9706 227.527 29.6782 229.459 27.2267C231.391 24.7752 234.035 23.5476 237.39 23.5476C240.08 23.5476 242.302 24.5124 244.057 26.4421V12.9045H251.464V50.5663H244.796L244.441 47.747C242.603 49.9544 240.237 51.0581 237.339 51.0581C234.085 51.0581 231.477 49.8268 229.51 47.3678C227.543 44.9088 226.562 41.4888 226.562 37.1076ZM233.945 37.6332C233.945 40.1222 234.394 42.0294 235.298 43.3546C236.201 44.6798 237.511 45.3443 239.232 45.3443C241.512 45.3443 243.123 44.4208 244.057 42.57V32.0846C243.138 30.2338 241.547 29.3102 239.283 29.3102C235.724 29.3102 233.945 32.0846 233.945 37.6332Z" fill="#C6ADFF"/>
<path d="M273.2 50.5677C272.859 49.9295 272.613 49.1373 272.46 48.1875C270.673 50.0984 268.347 51.0557 265.488 51.0557C262.782 51.0557 260.537 50.3049 258.758 48.7995C256.979 47.2978 256.087 45.4019 256.087 43.1119C256.087 40.3 257.174 38.1414 259.344 36.6397C261.515 35.1343 264.651 34.376 268.757 34.3609H272.155V32.8405C272.155 31.6129 271.827 30.6331 271.174 29.8972C270.517 29.1614 269.484 28.7935 268.069 28.7935C266.825 28.7935 265.852 29.0788 265.144 29.6532C264.436 30.2239 264.084 31.0085 264.084 32.0071H256.701C256.701 30.4716 257.194 29.0488 258.183 27.7424C259.168 26.4359 260.568 25.4073 262.371 24.6639C264.178 23.9206 266.204 23.549 268.448 23.549C271.854 23.549 274.556 24.3711 276.559 26.0117C278.561 27.656 279.558 29.9648 279.558 32.9381V44.4371C279.574 46.9562 279.941 48.8595 280.657 50.151V50.5677H273.2ZM267.095 45.6385C268.186 45.6385 269.191 45.4057 270.11 44.9402C271.029 44.4747 271.71 43.8477 272.151 43.0631V38.5018H269.395C265.699 38.5018 263.732 39.7294 263.494 42.1809L263.47 42.5976C263.47 43.4798 263.795 44.2081 264.44 44.7788C265.085 45.3494 265.973 45.6385 267.095 45.6385Z" fill="#C6ADFF"/>
<path d="M300.755 30.68C299.75 30.5486 298.867 30.4848 298.1 30.4848C295.308 30.4848 293.478 31.3933 292.61 33.2066V50.5658H285.227V24.0351H292.199L292.402 27.1961C293.885 24.7597 295.934 23.5433 298.558 23.5433C299.375 23.5433 300.141 23.6485 300.857 23.8624L300.755 30.68Z" fill="#C6ADFF"/>
</svg>
