<svg width="290" height="72" viewBox="0 0 290 72" fill="none" xmlns="http://www.w3.org/2000/svg">
<path fill-rule="evenodd" clip-rule="evenodd" d="M110.399 25.9943C108.575 28.4131 107.663 31.6645 107.663 35.7288C107.663 40.0509 108.595 43.4213 110.459 45.84C112.322 48.2588 114.781 49.4682 117.854 49.4682C120.59 49.4682 122.81 48.3976 124.555 46.2167L124.892 48.9923H131.196V11.918H124.198V25.2211C122.533 23.3178 120.431 22.3662 117.893 22.3662C114.721 22.3662 112.223 23.5756 110.399 25.9943ZM115.931 41.8749C115.058 40.5664 114.642 38.7027 114.642 36.2443C114.642 30.7922 116.327 28.0562 119.678 28.0364C121.819 28.0364 123.326 28.9484 124.198 30.7724V41.1017C123.306 42.9256 121.799 43.8376 119.638 43.8376C118.012 43.8376 116.783 43.1834 115.931 41.8749ZM136.869 13.5268C136.175 14.2008 135.818 15.0534 135.818 16.1041C135.818 17.1747 136.175 18.0471 136.908 18.7013C137.622 19.3754 138.574 19.7124 139.743 19.7124C140.913 19.7124 141.865 19.3754 142.578 18.7013C143.292 18.0272 143.649 17.1747 143.649 16.1041C143.649 15.0732 143.292 14.2008 142.578 13.5268C141.865 12.8527 140.913 12.5156 139.724 12.5156C138.514 12.5156 137.563 12.8527 136.869 13.5268ZM136.234 48.9952H143.233V22.8647H136.234V48.9952ZM162.384 41.7761C162.384 40.9236 161.968 40.2496 161.115 39.7539C160.263 39.2583 158.915 38.8221 157.051 38.4454C150.846 37.1369 147.733 34.5001 147.733 30.5349C147.733 28.2153 148.684 26.2922 150.608 24.7259C152.531 23.1795 155.049 22.4063 158.141 22.4063C161.452 22.4063 164.109 23.1795 166.092 24.7457C168.074 26.312 169.066 28.3342 169.066 30.8323H162.087C162.087 29.841 161.77 29.0083 161.115 28.354C160.481 27.6998 159.47 27.3826 158.102 27.3826C156.932 27.3826 156.02 27.6403 155.366 28.1756C154.731 28.7109 154.394 29.385 154.394 30.1979C154.394 30.9711 154.751 31.5857 155.485 32.0615C156.218 32.5373 157.448 32.9536 159.192 33.2907C160.937 33.6277 162.384 34.0242 163.594 34.4604C167.281 35.8086 169.125 38.148 169.125 41.4788C169.125 43.8579 168.094 45.781 166.052 47.2679C164.01 48.735 161.373 49.4686 158.141 49.4686C155.961 49.4686 154.018 49.0721 152.313 48.2989C150.608 47.5257 149.279 46.4551 148.328 45.0871C147.356 43.7191 146.88 42.252 146.88 40.6857H153.522C153.581 41.9149 154.037 42.8666 154.89 43.5406C155.743 44.1949 156.892 44.5319 158.32 44.5319C159.648 44.5319 160.659 44.2742 161.353 43.7786C162.027 43.2433 162.384 42.589 162.384 41.7761ZM186.908 42.7638C186.115 43.4776 185.064 43.8344 183.775 43.8344C182.09 43.8344 180.841 43.2595 179.988 42.1096C179.176 40.92 178.759 38.9969 178.759 36.3006V35.567C178.759 32.9104 179.176 30.9873 180.008 29.7977C180.841 28.6082 182.07 28.0134 183.696 28.0134C185.024 28.0134 186.075 28.4297 186.888 29.2822C187.681 30.1348 188.097 31.2252 188.137 32.5932H194.679C194.64 29.5202 193.629 27.0419 191.666 25.1783C189.703 23.3147 187.086 22.3829 183.815 22.3829C180.087 22.3829 177.153 23.5724 175.012 25.9713C172.871 28.3703 171.8 31.582 171.8 35.6067V36.0429C171.8 40.2261 172.871 43.4974 175.032 45.8765C177.193 48.2556 180.147 49.4451 183.874 49.4451C185.877 49.4451 187.701 49.0486 189.346 48.2358C191.012 47.4229 192.3 46.273 193.252 44.8059C194.203 43.3388 194.679 41.7131 194.699 39.9486H188.157C188.137 41.1183 187.72 42.0501 186.908 42.7638ZM196.86 35.6896C196.86 33.0924 197.355 30.7926 198.346 28.7704C199.338 26.7482 200.785 25.1819 202.649 24.0717C204.532 22.9614 206.693 22.4063 209.172 22.4063C212.701 22.4063 215.575 23.4769 217.796 25.6379C220.016 27.7989 221.265 30.7133 221.523 34.4208L221.563 36.2051C221.563 40.2099 220.453 43.4217 218.212 45.8405C215.972 48.2592 212.978 49.4686 209.211 49.4686C205.444 49.4686 202.45 48.2592 200.19 45.8405C197.95 43.4217 196.82 40.1504 196.82 35.987V35.6896H196.86ZM203.838 36.1853C203.838 38.6635 204.314 40.5668 205.246 41.8753C206.178 43.1838 207.506 43.838 209.251 43.838C210.936 43.838 212.264 43.1838 213.216 41.8951C214.168 40.6064 214.644 38.5247 214.644 35.6698C214.644 33.2312 214.168 31.3478 213.216 30.0194C212.264 28.6911 210.936 28.017 209.211 28.017C207.506 28.017 206.178 28.6911 205.246 30.0194C204.294 31.3279 203.838 33.3898 203.838 36.1853ZM239.427 22.8633L234.57 40.4687L229.712 22.8633H222.417L231.239 48.974H237.92L246.723 22.8633H239.427ZM260.739 49.4672C256.913 49.4672 253.8 48.2975 251.381 45.9382C248.982 43.5988 247.773 40.4663 247.773 36.5408V35.8667C247.773 33.2497 248.289 30.8904 249.3 28.8285C250.311 26.7666 251.758 25.1607 253.602 24.0505C255.466 22.9402 257.587 22.3653 259.966 22.3653C263.535 22.3653 266.35 23.4953 268.392 25.7357C270.434 27.9958 271.465 31.1878 271.465 35.3116V38.1863H254.831C255.049 39.8913 255.743 41.2593 256.873 42.2903C258.003 43.3212 259.451 43.8367 261.175 43.8367C263.872 43.8367 265.954 42.8652 267.48 40.9223L270.91 44.7685C269.859 46.2554 268.452 47.4053 266.667 48.238C264.883 49.0509 262.9 49.4672 260.739 49.4672ZM259.946 28.0156C258.558 28.0156 257.448 28.4915 256.576 29.4233C255.723 30.3551 255.168 31.7033 254.93 33.4479H264.625V32.8928C264.586 31.3464 264.169 30.137 263.376 29.2845C262.563 28.432 261.413 28.0156 259.946 28.0156ZM286.849 29.2029C287.583 29.2029 288.416 29.2822 289.367 29.4012L289.446 22.7001C288.753 22.482 288.039 22.3829 287.266 22.3829C284.787 22.3829 282.864 23.5724 281.457 25.9713L281.259 22.8587H274.676V48.9693H281.655V31.8794C282.488 30.0951 284.213 29.2029 286.849 29.2029Z" fill="white"/>
<path opacity="0.3" d="M61.4411 61.4409C47.4815 75.4302 24.8492 75.5193 10.7708 61.7082C20.7207 71.4205 36.6702 71.3314 46.5311 61.4706C56.4513 51.5206 56.4513 35.3928 46.5014 25.4726C36.5514 15.5227 20.4237 15.5524 10.5035 25.5023C0.672352 35.3334 0.612949 51.2533 10.2956 61.2033C-3.51552 47.1249 -3.42642 24.5518 10.5332 10.5625C24.5818 -3.51589 47.3627 -3.51589 61.4411 10.5328C75.4898 24.5816 75.4898 47.3922 61.4411 61.4409Z" fill="#4863F7"/>
<path opacity="0.6" d="M46.5318 61.4404C36.671 71.3012 20.7214 71.3903 10.7715 61.678C10.6824 61.5889 10.623 61.5295 10.5339 61.4404L10.5042 61.4107C16.3553 67.2321 25.8003 67.2321 31.6515 61.4107C37.4729 55.5595 37.4729 46.1145 31.6515 40.2633C25.8003 34.4716 16.3256 34.4716 10.5042 40.293C4.7124 46.0848 4.6827 55.4407 10.3853 61.2919C10.3853 61.2919 10.3853 61.2919 10.3556 61.2622C10.3556 61.2622 10.3556 61.2622 10.3259 61.2325L10.2962 61.2028L10.2665 61.1731C0.613625 51.2528 0.673027 35.3329 10.5339 25.4721C20.4838 15.5222 36.5819 15.5222 46.5318 25.4424C56.4817 35.3923 56.4817 51.5201 46.5318 61.4404Z" fill="#4863F7"/>
<path opacity="0.4" d="M10.501 61.4367C10.4421 61.3778 10.3832 61.3188 10.3242 61.2599L10.3537 61.2894C10.4126 61.3483 10.4716 61.4073 10.501 61.4367Z" fill="#4863F7"/>
<path d="M31.6495 61.4421C25.8281 67.2932 16.3534 67.2932 10.5022 61.4421C10.4428 61.3827 10.4131 61.353 10.3537 61.2936C4.65109 55.4424 4.68079 46.0865 10.4725 40.2947C16.294 34.4435 25.7687 34.4435 31.6198 40.2947C37.471 46.1162 37.471 55.5909 31.6495 61.4421Z" fill="#4863F7"/>
</svg>
